<?xml version="1.0" standalone="no"?>
<!DOCTYPE svg PUBLIC "-//W3C//DTD SVG 20010904//EN"
 "http://www.w3.org/TR/2001/REC-SVG-20010904/DTD/svg10.dtd">
<svg version="1.0" xmlns="http://www.w3.org/2000/svg"
 width="70.000000pt" height="70.000000pt" viewBox="0 0 70.000000 70.000000"
 preserveAspectRatio="xMidYMid meet">
<metadata>
Created by potrace 1.14, written by Peter Selinger 2001-2017
</metadata>
<g transform="translate(0.000000,70.000000) scale(0.100000,-0.100000)"
fill="#000000" stroke="none">
<path d="M318 673 c-16 -19 -10 -54 11 -68 6 -3 11 -26 11 -51 0 -28 4 -43 10
-39 6 3 10 23 10 44 0 22 6 44 15 51 8 7 15 22 15 34 0 44 -44 61 -72 29z"/>
<path d="M134 600 c-44 -17 -36 -71 12 -77 16 -2 35 -11 42 -20 6 -9 12 -13
12 -8 0 5 6 1 13 -9 8 -11 19 -17 26 -15 8 3 1 16 -18 34 -17 17 -31 40 -31
53 0 20 -21 53 -32 51 -2 0 -12 -4 -24 -9z"/>
<path d="M526 598 c-9 -5 -16 -20 -16 -34 0 -14 -13 -39 -29 -57 -17 -17 -27
-35 -24 -41 4 -5 14 0 23 11 18 23 58 47 80 48 20 0 42 46 29 61 -14 17 -44
23 -63 12z"/>
<path d="M320 486 c-51 -16 -65 -27 -84 -64 -10 -20 -31 -39 -50 -47 -38 -16
-62 -61 -52 -100 8 -33 44 -65 73 -65 21 0 22 -4 25 -97 l3 -98 95 -3 c146 -4
140 -9 140 102 l0 94 34 6 c70 13 96 111 43 160 -16 14 -32 27 -38 27 -5 1
-13 2 -18 3 -5 0 -25 17 -43 38 -41 45 -81 59 -128 44z"/>
</g>
</svg>
